<svg xmlns="http://www.w3.org/2000/svg" xmlns:xlink="http://www.w3.org/1999/xlink" width="1280" zoomAndPan="magnify" viewBox="0 0 960 540.000001" height="720" preserveAspectRatio="xMidYMid meet" version="1.0"><defs><clipPath id="bd41844beb"><path d="M 16.792969 33.671875 L 195 33.671875 L 195 384 L 16.792969 384 Z M 16.792969 33.671875 " clip-rule="nonzero"/></clipPath><clipPath id="8e6d0c3a5e"><path d="M 468 152 L 513 152 L 513 505.296875 L 468 505.296875 Z M 468 152 " clip-rule="nonzero"/></clipPath><clipPath id="d128da0c1e"><path d="M 683 33.671875 L 729 33.671875 L 729 384 L 683 384 Z M 683 33.671875 " clip-rule="nonzero"/></clipPath><clipPath id="4d00ef2caf"><path d="M 779 152 L 943.574219 152 L 943.574219 384 L 779 384 Z M 779 152 " clip-rule="nonzero"/></clipPath></defs><g clip-path="url(#bd41844beb)"><path fill="#ffffff" d="M 136.070312 33.679688 L 16.792969 33.679688 L 16.792969 383.46875 L 136.070312 383.46875 C 175.117188 383.46875 194.632812 369.449219 194.632812 341.410156 L 194.632812 75.734375 C 194.632812 47.699219 175.101562 33.679688 136.070312 33.679688 M 147.867188 349.878906 L 63.574219 349.878906 L 63.574219 67.265625 L 147.867188 67.265625 Z M 147.867188 349.878906 " fill-opacity="1" fill-rule="nonzero"/></g><path fill="#ffffff" d="M 372.507812 355.015625 L 297.859375 355.015625 L 297.859375 152.917969 L 253.210938 152.917969 L 253.210938 341.410156 C 253.210938 369.449219 272.730469 383.46875 311.792969 383.46875 L 417.152344 383.46875 L 417.152344 152.917969 L 372.507812 152.917969 L 372.507812 355 " fill-opacity="1" fill-rule="nonzero"/><g clip-path="url(#8e6d0c3a5e)"><path fill="#f1d52b" d="M 512.855469 355.015625 L 512.855469 152.917969 L 468.226562 152.917969 L 468.226562 505.292969 L 512.855469 505.292969 L 512.855469 355.015625 " fill-opacity="1" fill-rule="nonzero"/></g><path fill="#f1d52b" d="M 573.570312 152.917969 L 550.179688 152.917969 L 550.179688 181.386719 L 587.503906 181.386719 L 587.503906 355 L 550.179688 355 L 550.179688 383.46875 L 573.570312 383.46875 C 612.621094 383.46875 632.152344 369.449219 632.152344 341.410156 L 632.152344 195.484375 C 632.152344 167.109375 612.621094 152.902344 573.570312 152.902344 " fill-opacity="1" fill-rule="nonzero"/><g clip-path="url(#d128da0c1e)"><path fill="#f1d52b" d="M 683.207031 33.679688 L 728.5625 33.679688 L 728.5625 383.46875 L 683.207031 383.46875 Z M 683.207031 33.679688 " fill-opacity="1" fill-rule="nonzero"/></g><g clip-path="url(#4d00ef2caf)"><path fill="#f1d52b" d="M 885.011719 152.917969 L 838.230469 152.917969 C 799.183594 152.917969 779.664062 167.109375 779.664062 195.5 L 779.664062 341.425781 C 779.664062 369.464844 799.183594 383.484375 838.230469 383.484375 L 885.011719 383.484375 C 924.058594 383.484375 943.574219 369.464844 943.574219 341.425781 L 943.574219 195.5 C 943.574219 167.121094 924.058594 152.917969 885.011719 152.917969 M 898.929688 355.015625 L 824.296875 355.015625 L 824.296875 181.402344 L 898.929688 181.402344 Z M 898.929688 355.015625 " fill-opacity="1" fill-rule="nonzero"/></g></svg>